<mxfile host="app.diagrams.net" modified="2022-12-08T03:24:56.643Z" agent="5.0 (Windows NT 10.0; Win64; x64) AppleWebKit/537.36 (KHTML, like Gecko) Chrome/108.0.0.0 Safari/537.36" etag="14tQNm47AqhlVkJJjyLG" version="20.5.3" type="github">
  <diagram id="C5RBs43oDa-KdzZeNtuy" name="Page-1">
    <mxGraphModel dx="1445" dy="336" grid="1" gridSize="10" guides="1" tooltips="1" connect="1" arrows="1" fold="1" page="1" pageScale="1" pageWidth="827" pageHeight="1169" math="0" shadow="0">
      <root>
        <mxCell id="WIyWlLk6GJQsqaUBKTNV-0" />
        <mxCell id="WIyWlLk6GJQsqaUBKTNV-1" parent="WIyWlLk6GJQsqaUBKTNV-0" />
        <mxCell id="yq9W5TSuTJ_uVS9eRUoZ-3" style="edgeStyle=orthogonalEdgeStyle;rounded=0;orthogonalLoop=1;jettySize=auto;html=1;entryX=0;entryY=0.5;entryDx=0;entryDy=0;" edge="1" parent="WIyWlLk6GJQsqaUBKTNV-1" source="yq9W5TSuTJ_uVS9eRUoZ-1" target="yq9W5TSuTJ_uVS9eRUoZ-2">
          <mxGeometry relative="1" as="geometry" />
        </mxCell>
        <mxCell id="yq9W5TSuTJ_uVS9eRUoZ-1" value="backbone" style="rounded=1;whiteSpace=wrap;html=1;fontSize=12;glass=0;strokeWidth=1;shadow=0;" vertex="1" parent="WIyWlLk6GJQsqaUBKTNV-1">
          <mxGeometry x="90" y="170" width="60" height="40" as="geometry" />
        </mxCell>
        <mxCell id="yq9W5TSuTJ_uVS9eRUoZ-6" style="edgeStyle=orthogonalEdgeStyle;rounded=0;orthogonalLoop=1;jettySize=auto;html=1;entryX=0;entryY=0.5;entryDx=0;entryDy=0;" edge="1" parent="WIyWlLk6GJQsqaUBKTNV-1" source="yq9W5TSuTJ_uVS9eRUoZ-2" target="yq9W5TSuTJ_uVS9eRUoZ-4">
          <mxGeometry relative="1" as="geometry" />
        </mxCell>
        <mxCell id="yq9W5TSuTJ_uVS9eRUoZ-2" value="RPN" style="rounded=1;whiteSpace=wrap;html=1;fontSize=12;glass=0;strokeWidth=1;shadow=0;" vertex="1" parent="WIyWlLk6GJQsqaUBKTNV-1">
          <mxGeometry x="200" y="170" width="60" height="40" as="geometry" />
        </mxCell>
        <mxCell id="yq9W5TSuTJ_uVS9eRUoZ-13" style="edgeStyle=orthogonalEdgeStyle;rounded=0;orthogonalLoop=1;jettySize=auto;html=1;exitX=0.5;exitY=1;exitDx=0;exitDy=0;entryX=0.5;entryY=0;entryDx=0;entryDy=0;" edge="1" parent="WIyWlLk6GJQsqaUBKTNV-1" source="yq9W5TSuTJ_uVS9eRUoZ-4" target="yq9W5TSuTJ_uVS9eRUoZ-12">
          <mxGeometry relative="1" as="geometry" />
        </mxCell>
        <mxCell id="yq9W5TSuTJ_uVS9eRUoZ-4" value="RoIs" style="rounded=1;whiteSpace=wrap;html=1;fontSize=12;glass=0;strokeWidth=1;shadow=0;" vertex="1" parent="WIyWlLk6GJQsqaUBKTNV-1">
          <mxGeometry x="340" y="170" width="60" height="40" as="geometry" />
        </mxCell>
        <mxCell id="yq9W5TSuTJ_uVS9eRUoZ-9" style="edgeStyle=orthogonalEdgeStyle;rounded=0;orthogonalLoop=1;jettySize=auto;html=1;entryX=0;entryY=0.5;entryDx=0;entryDy=0;" edge="1" parent="WIyWlLk6GJQsqaUBKTNV-1" source="yq9W5TSuTJ_uVS9eRUoZ-8" target="yq9W5TSuTJ_uVS9eRUoZ-1">
          <mxGeometry relative="1" as="geometry" />
        </mxCell>
        <mxCell id="yq9W5TSuTJ_uVS9eRUoZ-8" value="视频帧" style="rounded=1;whiteSpace=wrap;html=1;fontSize=12;glass=0;strokeWidth=1;shadow=0;" vertex="1" parent="WIyWlLk6GJQsqaUBKTNV-1">
          <mxGeometry x="10" y="170" width="60" height="40" as="geometry" />
        </mxCell>
        <mxCell id="yq9W5TSuTJ_uVS9eRUoZ-19" style="edgeStyle=orthogonalEdgeStyle;rounded=0;orthogonalLoop=1;jettySize=auto;html=1;exitX=0;exitY=0.5;exitDx=0;exitDy=0;entryX=1;entryY=0.5;entryDx=0;entryDy=0;" edge="1" parent="WIyWlLk6GJQsqaUBKTNV-1" source="yq9W5TSuTJ_uVS9eRUoZ-12" target="yq9W5TSuTJ_uVS9eRUoZ-20">
          <mxGeometry relative="1" as="geometry">
            <mxPoint x="310" y="260" as="targetPoint" />
          </mxGeometry>
        </mxCell>
        <mxCell id="yq9W5TSuTJ_uVS9eRUoZ-12" value="第一次重检测模型" style="rounded=0;whiteSpace=wrap;html=1;" vertex="1" parent="WIyWlLk6GJQsqaUBKTNV-1">
          <mxGeometry x="340" y="240" width="60" height="40" as="geometry" />
        </mxCell>
        <mxCell id="yq9W5TSuTJ_uVS9eRUoZ-16" value="" style="endArrow=classic;html=1;rounded=0;entryX=0;entryY=0.5;entryDx=0;entryDy=0;" edge="1" parent="WIyWlLk6GJQsqaUBKTNV-1" target="yq9W5TSuTJ_uVS9eRUoZ-8">
          <mxGeometry width="50" height="50" relative="1" as="geometry">
            <mxPoint x="-40" y="190" as="sourcePoint" />
            <mxPoint x="-40" y="160" as="targetPoint" />
          </mxGeometry>
        </mxCell>
        <mxCell id="yq9W5TSuTJ_uVS9eRUoZ-17" value="proposal region" style="text;html=1;strokeColor=none;fillColor=none;align=center;verticalAlign=middle;whiteSpace=wrap;rounded=0;" vertex="1" parent="WIyWlLk6GJQsqaUBKTNV-1">
          <mxGeometry x="260" y="175" width="70" height="30" as="geometry" />
        </mxCell>
        <mxCell id="yq9W5TSuTJ_uVS9eRUoZ-18" value="当前帧和初始化目标特征" style="text;html=1;strokeColor=none;fillColor=none;align=center;verticalAlign=middle;whiteSpace=wrap;rounded=0;" vertex="1" parent="WIyWlLk6GJQsqaUBKTNV-1">
          <mxGeometry x="367" y="220" width="94" height="10" as="geometry" />
        </mxCell>
        <mxCell id="yq9W5TSuTJ_uVS9eRUoZ-31" style="edgeStyle=orthogonalEdgeStyle;rounded=0;orthogonalLoop=1;jettySize=auto;html=1;entryX=1;entryY=0.5;entryDx=0;entryDy=0;startArrow=none;" edge="1" parent="WIyWlLk6GJQsqaUBKTNV-1" target="yq9W5TSuTJ_uVS9eRUoZ-21">
          <mxGeometry relative="1" as="geometry">
            <mxPoint x="108" y="260" as="sourcePoint" />
          </mxGeometry>
        </mxCell>
        <mxCell id="yq9W5TSuTJ_uVS9eRUoZ-20" value="预测框回归和相似度计算" style="rounded=1;whiteSpace=wrap;html=1;fontSize=12;glass=0;strokeWidth=1;shadow=0;" vertex="1" parent="WIyWlLk6GJQsqaUBKTNV-1">
          <mxGeometry x="210" y="240" width="91" height="40" as="geometry" />
        </mxCell>
        <mxCell id="yq9W5TSuTJ_uVS9eRUoZ-36" style="edgeStyle=orthogonalEdgeStyle;rounded=0;orthogonalLoop=1;jettySize=auto;html=1;exitX=0.5;exitY=1;exitDx=0;exitDy=0;entryX=0.5;entryY=0;entryDx=0;entryDy=0;" edge="1" parent="WIyWlLk6GJQsqaUBKTNV-1" source="yq9W5TSuTJ_uVS9eRUoZ-21" target="yq9W5TSuTJ_uVS9eRUoZ-29">
          <mxGeometry relative="1" as="geometry" />
        </mxCell>
        <mxCell id="yq9W5TSuTJ_uVS9eRUoZ-21" value="第二次重检测" style="rounded=1;whiteSpace=wrap;html=1;fontSize=12;glass=0;strokeWidth=1;shadow=0;" vertex="1" parent="WIyWlLk6GJQsqaUBKTNV-1">
          <mxGeometry x="39" y="240" width="60" height="40" as="geometry" />
        </mxCell>
        <mxCell id="yq9W5TSuTJ_uVS9eRUoZ-38" style="edgeStyle=orthogonalEdgeStyle;rounded=0;orthogonalLoop=1;jettySize=auto;html=1;exitX=0.5;exitY=1;exitDx=0;exitDy=0;entryX=0.5;entryY=0;entryDx=0;entryDy=0;" edge="1" parent="WIyWlLk6GJQsqaUBKTNV-1" source="yq9W5TSuTJ_uVS9eRUoZ-29" target="yq9W5TSuTJ_uVS9eRUoZ-37">
          <mxGeometry relative="1" as="geometry" />
        </mxCell>
        <mxCell id="yq9W5TSuTJ_uVS9eRUoZ-29" value="相似度计算" style="rounded=1;whiteSpace=wrap;html=1;fontSize=12;glass=0;strokeWidth=1;shadow=0;" vertex="1" parent="WIyWlLk6GJQsqaUBKTNV-1">
          <mxGeometry x="23.5" y="310" width="91" height="40" as="geometry" />
        </mxCell>
        <mxCell id="yq9W5TSuTJ_uVS9eRUoZ-32" value="特征图" style="text;html=1;align=center;verticalAlign=middle;resizable=0;points=[];autosize=1;strokeColor=none;fillColor=none;" vertex="1" parent="WIyWlLk6GJQsqaUBKTNV-1">
          <mxGeometry x="140" y="165" width="60" height="30" as="geometry" />
        </mxCell>
        <mxCell id="yq9W5TSuTJ_uVS9eRUoZ-43" style="edgeStyle=orthogonalEdgeStyle;rounded=0;orthogonalLoop=1;jettySize=auto;html=1;exitX=0.5;exitY=1;exitDx=0;exitDy=0;entryX=0.5;entryY=0;entryDx=0;entryDy=0;" edge="1" parent="WIyWlLk6GJQsqaUBKTNV-1" source="yq9W5TSuTJ_uVS9eRUoZ-37" target="yq9W5TSuTJ_uVS9eRUoZ-42">
          <mxGeometry relative="1" as="geometry" />
        </mxCell>
        <mxCell id="yq9W5TSuTJ_uVS9eRUoZ-45" style="edgeStyle=orthogonalEdgeStyle;rounded=0;orthogonalLoop=1;jettySize=auto;html=1;exitX=1;exitY=0.5;exitDx=0;exitDy=0;entryX=0;entryY=0.5;entryDx=0;entryDy=0;" edge="1" parent="WIyWlLk6GJQsqaUBKTNV-1" source="yq9W5TSuTJ_uVS9eRUoZ-37" target="yq9W5TSuTJ_uVS9eRUoZ-41">
          <mxGeometry relative="1" as="geometry" />
        </mxCell>
        <mxCell id="yq9W5TSuTJ_uVS9eRUoZ-37" value="得分是否满足？" style="rhombus;whiteSpace=wrap;html=1;" vertex="1" parent="WIyWlLk6GJQsqaUBKTNV-1">
          <mxGeometry x="235.5" y="310" width="80" height="70" as="geometry" />
        </mxCell>
        <mxCell id="yq9W5TSuTJ_uVS9eRUoZ-41" value="新轨迹" style="rounded=1;whiteSpace=wrap;html=1;fontSize=12;glass=0;strokeWidth=1;shadow=0;" vertex="1" parent="WIyWlLk6GJQsqaUBKTNV-1">
          <mxGeometry x="350" y="327.5" width="50" height="35" as="geometry" />
        </mxCell>
        <mxCell id="yq9W5TSuTJ_uVS9eRUoZ-42" value="扩容对应det至已有跟踪轨迹序列中" style="rounded=1;whiteSpace=wrap;html=1;fontSize=12;glass=0;strokeWidth=1;shadow=0;" vertex="1" parent="WIyWlLk6GJQsqaUBKTNV-1">
          <mxGeometry x="240.75" y="410" width="69.5" height="43" as="geometry" />
        </mxCell>
        <mxCell id="yq9W5TSuTJ_uVS9eRUoZ-46" value="有效dets" style="text;html=1;strokeColor=none;fillColor=none;align=center;verticalAlign=middle;whiteSpace=wrap;rounded=0;" vertex="1" parent="WIyWlLk6GJQsqaUBKTNV-1">
          <mxGeometry x="70" y="280" width="50" height="20" as="geometry" />
        </mxCell>
        <mxCell id="yq9W5TSuTJ_uVS9eRUoZ-26" value="&lt;div style=&quot;text-align: center;&quot;&gt;当前帧和前一帧目标特征图&lt;/div&gt;" style="text;whiteSpace=wrap;html=1;" vertex="1" parent="WIyWlLk6GJQsqaUBKTNV-1">
          <mxGeometry x="110" y="240" width="81" height="40" as="geometry" />
        </mxCell>
      </root>
    </mxGraphModel>
  </diagram>
</mxfile>
